<svg width="20" height="20" viewBox="0 0 20 20" fill="none" xmlns="http://www.w3.org/2000/svg">
<path d="M10 0C4.48618 0 0 4.48618 0 10C0 15.5138 4.48618 20 10 20C15.5138 20 20 15.5138 20 10C20 4.48618 15.5138 0 10 0ZM10 1.53846C14.6815 1.53846 18.4615 5.31851 18.4615 10C18.4615 14.6815 14.6815 18.4615 10 18.4615C5.31851 18.4615 1.53846 14.6815 1.53846 10C1.53846 5.31851 5.31851 1.53846 10 1.53846ZM9.23077 5.38462V6.92308H10.7692V5.38462H9.23077ZM9.23077 8.46154V14.6154H10.7692V8.46154H9.23077Z" fill="url(#paint0_linear_3230_12706)"/>
<path d="M10 0C4.48618 0 0 4.48618 0 10C0 15.5138 4.48618 20 10 20C15.5138 20 20 15.5138 20 10C20 4.48618 15.5138 0 10 0ZM10 1.53846C14.6815 1.53846 18.4615 5.31851 18.4615 10C18.4615 14.6815 14.6815 18.4615 10 18.4615C5.31851 18.4615 1.53846 14.6815 1.53846 10C1.53846 5.31851 5.31851 1.53846 10 1.53846ZM9.23077 5.38462V6.92308H10.7692V5.38462H9.23077ZM9.23077 8.46154V14.6154H10.7692V8.46154H9.23077Z" fill="url(#paint1_linear_3230_12706)"/>
<defs>
<linearGradient id="paint0_linear_3230_12706" x1="0" y1="0" x2="23.2" y2="25.8" gradientUnits="userSpaceOnUse">
<stop stop-color="#7A9AE9"/>
<stop offset="1" stop-color="#90A6EE"/>
</linearGradient>
<linearGradient id="paint1_linear_3230_12706" x1="0.9" y1="18.6" x2="21.2" y2="5.30243e-07" gradientUnits="userSpaceOnUse">
<stop stop-color="#9580FF"/>
<stop offset="1" stop-color="#8876E1" stop-opacity="0"/>
</linearGradient>
</defs>
</svg>
