<svg width="30" height="31" viewBox="0 0 30 31" fill="none" xmlns="http://www.w3.org/2000/svg">
<path fill-rule="evenodd" clip-rule="evenodd" d="M0.517163 3.20795C0 4.22294 0 5.55163 0 8.20902V22.7958C0 25.4531 0 26.7818 0.517163 27.7968C0.972072 28.6896 1.69795 29.4155 2.59076 29.8704C3.60575 30.3876 4.93444 30.3876 7.59184 30.3876H22.4082C25.0656 30.3876 26.3943 30.3876 27.4092 29.8704C28.302 29.4155 29.0279 28.6896 29.4828 27.7968C30 26.7818 30 25.4531 30 22.7958V8.20902C30 5.55163 30 4.22294 29.4828 3.20795C29.0279 2.31514 28.302 1.58926 27.4092 1.13435C26.3943 0.617188 25.0656 0.617188 22.4082 0.617188H7.59184C4.93444 0.617188 3.60575 0.617188 2.59076 1.13435C1.69795 1.58926 0.972072 2.31514 0.517163 3.20795ZM20.3572 10.4904C20.3572 13.4441 17.938 15.8467 14.9618 15.8467C11.9863 15.8467 9.56641 13.4441 9.56641 10.4904C9.56641 7.53573 11.9863 5.13245 14.9618 5.13245C17.938 5.13245 20.3572 7.53573 20.3572 10.4904ZM17.1958 10.4904C17.1958 9.26709 16.1937 8.27237 14.9618 8.27237C13.7309 8.27237 12.7279 9.26709 12.7279 10.4904C12.7279 11.7127 13.7309 12.7081 14.9618 12.7081C16.1937 12.7081 17.1958 11.7127 17.1958 10.4904ZM17.1799 20.192C18.2765 19.9434 19.3342 19.5114 20.3083 18.9024C21.0456 18.4397 21.2677 17.4697 20.8031 16.7358C20.339 16.0003 19.3651 15.7789 18.6266 16.2416C16.4198 17.623 13.5785 17.6227 11.373 16.2416C10.6345 15.7789 9.6603 16.0003 9.19708 16.7358C8.73256 17.4703 8.95402 18.4397 9.69125 18.9024C10.6654 19.5108 11.7231 19.9434 12.8197 20.192L9.80762 23.1904C9.19192 23.8039 9.19192 24.7986 9.80826 25.4122C10.1168 25.7186 10.5203 25.872 10.9239 25.872C11.3282 25.872 11.7324 25.7186 12.0409 25.4122L14.9995 22.4658L17.9606 25.4122C18.5763 26.0257 19.5753 26.0257 20.1916 25.4122C20.8086 24.7986 20.8086 23.8033 20.1916 23.1904L17.1799 20.192Z" fill="url(#paint0_linear_4415_858)"/>
<path fill-rule="evenodd" clip-rule="evenodd" d="M0.517163 3.20795C0 4.22294 0 5.55163 0 8.20902V22.7958C0 25.4531 0 26.7818 0.517163 27.7968C0.972072 28.6896 1.69795 29.4155 2.59076 29.8704C3.60575 30.3876 4.93444 30.3876 7.59184 30.3876H22.4082C25.0656 30.3876 26.3943 30.3876 27.4092 29.8704C28.302 29.4155 29.0279 28.6896 29.4828 27.7968C30 26.7818 30 25.4531 30 22.7958V8.20902C30 5.55163 30 4.22294 29.4828 3.20795C29.0279 2.31514 28.302 1.58926 27.4092 1.13435C26.3943 0.617188 25.0656 0.617188 22.4082 0.617188H7.59184C4.93444 0.617188 3.60575 0.617188 2.59076 1.13435C1.69795 1.58926 0.972072 2.31514 0.517163 3.20795ZM20.3572 10.4904C20.3572 13.4441 17.938 15.8467 14.9618 15.8467C11.9863 15.8467 9.56641 13.4441 9.56641 10.4904C9.56641 7.53573 11.9863 5.13245 14.9618 5.13245C17.938 5.13245 20.3572 7.53573 20.3572 10.4904ZM17.1958 10.4904C17.1958 9.26709 16.1937 8.27237 14.9618 8.27237C13.7309 8.27237 12.7279 9.26709 12.7279 10.4904C12.7279 11.7127 13.7309 12.7081 14.9618 12.7081C16.1937 12.7081 17.1958 11.7127 17.1958 10.4904ZM17.1799 20.192C18.2765 19.9434 19.3342 19.5114 20.3083 18.9024C21.0456 18.4397 21.2677 17.4697 20.8031 16.7358C20.339 16.0003 19.3651 15.7789 18.6266 16.2416C16.4198 17.623 13.5785 17.6227 11.373 16.2416C10.6345 15.7789 9.6603 16.0003 9.19708 16.7358C8.73256 17.4703 8.95402 18.4397 9.69125 18.9024C10.6654 19.5108 11.7231 19.9434 12.8197 20.192L9.80762 23.1904C9.19192 23.8039 9.19192 24.7986 9.80826 25.4122C10.1168 25.7186 10.5203 25.872 10.9239 25.872C11.3282 25.872 11.7324 25.7186 12.0409 25.4122L14.9995 22.4658L17.9606 25.4122C18.5763 26.0257 19.5753 26.0257 20.1916 25.4122C20.8086 24.7986 20.8086 23.8033 20.1916 23.1904L17.1799 20.192Z" fill="url(#paint1_linear_4415_858)"/>
<defs>
<linearGradient id="paint0_linear_4415_858" x1="0" y1="0.617188" x2="34.5046" y2="39.2846" gradientUnits="userSpaceOnUse">
<stop stop-color="#96B4FF"/>
<stop offset="1" stop-color="#A6BAFF"/>
</linearGradient>
<linearGradient id="paint1_linear_4415_858" x1="1.35" y1="28.3037" x2="31.5863" y2="0.385782" gradientUnits="userSpaceOnUse">
<stop stop-color="#C2B6FF"/>
<stop offset="1" stop-color="#B1A1FF" stop-opacity="0"/>
</linearGradient>
</defs>
</svg>
