<svg width="30" height="31" viewBox="0 0 30 31" fill="none" xmlns="http://www.w3.org/2000/svg">
<g clip-path="url(#clip0_4498_7645)">
<path fill-rule="evenodd" clip-rule="evenodd" d="M15.6336 30.5H14.3844C7.60201 30.5 4.212 30.5 2.106 28.394C0 26.288 0 22.898 0 16.1336V14.8664C0 8.10078 0 4.71201 2.106 2.60601C4.212 0.500006 7.60201 0.5 14.3844 0.5H15.6336C22.4148 0.5 25.824 0.500006 27.912 2.60601C30 4.71201 30 8.10318 30 14.8664V16.1336L30 16.3041C30.0001 22.9551 30.0002 26.3057 27.912 28.394C25.806 30.5 22.4148 30.5 15.6336 30.5ZM5.06934 9.63782C5.22894 17.4366 9.33411 22.1298 16.0985 22.1298H16.4909V17.6682C18.9533 17.9178 20.7918 19.7562 21.5418 22.1298H25.0925C24.1289 18.579 21.6305 16.6158 20.0777 15.8658C21.6305 14.9382 23.8253 12.6894 24.3425 9.63782H21.1133C20.4342 12.1182 18.4181 14.367 16.4909 14.5806V9.63782H13.2066V18.2934C11.2085 17.7978 8.60215 15.3666 8.49533 9.63782H5.06934Z" fill="#A4A4A4"/>
</g>
<defs>
<clipPath id="clip0_4498_7645">
<rect width="30" height="30" fill="white" transform="translate(0 0.5)"/>
</clipPath>
</defs>
</svg>
